<svg xmlns="http://www.w3.org/2000/svg" width="169" height="101" viewBox="0 0 169 101" fill="none"><path d="M37.8408 24.271C45.5922 20.4588 53.3012 17.5632 60.9068 16.9851C60.9656 15.6548 61.0243 14.3339 61.0831 13.0248C53.4681 13.8239 45.7708 16.4045 38.0335 19.9653C37.9701 21.3966 37.9066 22.8327 37.8408 24.2687" fill="#5282C2"></path><path d="M60.9898 19.9793C53.8778 20.3859 46.6646 22.99 39.4139 26.5179C39.3505 27.9422 39.287 29.3711 39.2212 30.8048C46.4813 27.1007 53.7015 24.2804 60.8089 24.0383C60.87 22.6751 60.9311 21.3213 60.9898 19.9769" fill="#5282C2"></path><path d="M35.645 39.9874C44.6608 34.9719 53.6484 30.6449 62.4151 31.2466C62.4786 29.8411 62.5397 28.4427 62.6031 27.0537C53.8271 26.6612 44.8536 30.7131 35.8424 35.6065C35.7766 37.066 35.7132 38.5256 35.6474 39.9874" fill="#5282C2"></path><path d="M63.2139 41.8207C63.1505 43.2638 63.0847 44.714 63.0189 46.1735C43.8567 43.3672 23.456 68.2971 4.2915 65.5025L5.11647 61.2908C24.0929 63.4977 44.2704 38.864 63.2116 41.8207" fill="#5282C2"></path><path d="M66.8383 50.2654C66.7725 51.732 66.7067 53.1986 66.6409 54.6652C55.8224 50.5004 44.5079 57.3939 33.2335 63.4225C22.0107 69.6085 10.8256 74.939 0 72.2385L0.820261 68.0526C22.274 74.476 45.4363 42.7068 66.8407 50.2677" fill="#5282C2"></path><path d="M64.7765 57.4244C64.7107 58.898 64.6449 60.3764 64.5791 61.8571C54.193 59.2271 43.3957 65.8291 32.6524 71.2019C21.9373 76.8051 11.2763 81.1884 0.866699 79.9639L1.68931 75.7592C11.8732 77.301 22.3415 72.5087 32.8498 66.8115C43.6049 61.1637 54.4022 54.5687 64.7789 57.4244" fill="#5282C2"></path><path d="M26.2471 91.556C26.186 92.931 26.1249 94.2989 26.0638 95.662C19.8989 97.5775 13.7646 98.8232 7.62793 100.125L8.37533 96.3037C14.3099 95.1943 20.2632 93.7066 26.2448 91.556" fill="#5282C2"></path><path d="M62.0009 69.0211C52.0661 68.1374 41.814 74.3351 31.6325 78.9324C21.2135 83.9597 10.8721 87.3112 0.681152 87.2572L1.51081 83.0243C11.4644 83.6306 21.6154 79.7832 31.8275 74.5631C42.0232 69.611 52.28 63.291 62.203 64.4826L62.0009 69.0211Z" fill="#5282C2"></path><path d="M48.1638 79.4732C41.7686 81.7436 35.3311 84.9706 28.9265 87.4572C20.8155 90.7571 12.7586 92.8653 4.7417 94.0193L5.52435 90.0167C13.3227 89.1894 21.1939 86.7333 29.1145 83.1937C35.5308 80.4321 41.9801 76.9583 48.3777 74.6456L48.1614 79.4732H48.1638Z" fill="#5282C2"></path><path d="M58.2758 6.66699C58.2194 7.91501 58.1629 9.17478 58.1065 10.4487C52.306 11.4099 46.4631 13.2643 40.5967 15.6899L40.7824 11.5157C46.637 9.3393 52.4681 7.71523 58.2734 6.66934" fill="#5282C2"></path><path d="M48.5897 2.4199C51.3631 1.70305 54.1365 1.04731 56.9098 0.375122C56.9004 1.59259 56.8887 2.82415 56.8793 4.06512C54.0613 4.67385 51.2432 5.36719 48.4229 6.1757L48.5897 2.4199Z" fill="#5282C2"></path><path d="M61.1137 38.4013C49.8768 37.8396 38.2475 46.1103 26.7168 52.1483L26.9142 47.7226C38.4449 41.6729 50.0648 33.6654 61.3041 34.1472C61.2406 35.5551 61.1771 36.9746 61.1137 38.4013Z" fill="#5282C2"></path><path d="M79.0093 67.1689L77.7895 64.3955L76.5697 67.1689H79.0117H79.0093ZM79.2914 67.8152H76.283L75.6601 69.2301H74.8281L77.39 63.5706H78.1914L80.7627 69.2301H79.9142L79.2914 67.8152Z" fill="#5282C2"></path><path d="M81.9654 67.5121C82.1557 67.8435 82.4213 68.1044 82.7574 68.2925C83.0935 68.4805 83.4696 68.5745 83.8856 68.5745C84.3016 68.5745 84.6659 68.4805 85.002 68.2925C85.3357 68.1044 85.599 67.8435 85.7893 67.5121C85.9797 67.1807 86.0761 66.8094 86.0761 66.4004C86.0761 65.9915 85.9797 65.6201 85.7893 65.2887C85.599 64.9574 85.3357 64.6965 85.002 64.5084C84.6682 64.3204 84.2969 64.2264 83.8856 64.2264C83.4743 64.2264 83.0959 64.3204 82.7574 64.5084C82.4213 64.6965 82.1557 64.9574 81.9654 65.2887C81.775 65.6201 81.6786 65.9915 81.6786 66.4004C81.6786 66.8094 81.775 67.1807 81.9654 67.5121ZM87.1596 69.7473C86.9762 69.9635 86.7624 70.1281 86.5203 70.2409C86.2782 70.3537 86.0173 70.4101 85.7353 70.4101C85.3804 70.4101 85.0466 70.3255 84.7364 70.1563C84.4261 69.987 84.0736 69.6956 83.6741 69.2866C83.1405 69.2608 82.6587 69.1174 82.231 68.8589C81.8032 68.6003 81.4694 68.2572 81.2297 67.8271C80.99 67.3993 80.8701 66.9222 80.8701 66.4004C80.8701 65.8787 81.0017 65.364 81.2626 64.9221C81.5235 64.4802 81.8831 64.1347 82.3414 63.8833C82.7997 63.6318 83.3145 63.5072 83.8856 63.5072C84.4567 63.5072 84.9644 63.6318 85.4227 63.8833C85.881 64.1347 86.2382 64.4779 86.4968 64.9174C86.7553 65.3569 86.8846 65.8505 86.8846 66.4004C86.8846 66.8635 86.7929 67.2889 86.6049 67.6767C86.4192 68.0645 86.1583 68.3912 85.8199 68.6544C85.4838 68.92 85.096 69.101 84.6588 69.2044C84.8469 69.4042 85.0302 69.5475 85.2041 69.6368C85.378 69.7261 85.559 69.7708 85.7423 69.7708C86.1419 69.7708 86.4874 69.6086 86.7765 69.2843L87.1572 69.7449L87.1596 69.7473Z" fill="#5282C2"></path><path d="M88.5684 68.6497C88.1477 68.2172 87.9385 67.5991 87.9385 66.7906V63.573H88.747V66.7577C88.747 67.9704 89.2782 68.5768 90.3405 68.5768C90.8576 68.5768 91.2548 68.4264 91.5298 68.1279C91.8047 67.8294 91.9411 67.3735 91.9411 66.7577V63.573H92.7261V66.7906C92.7261 67.6038 92.5169 68.2266 92.0962 68.6544C91.6755 69.0821 91.0879 69.296 90.3334 69.296C89.579 69.296 88.9914 69.0798 88.5707 68.6497" fill="#5282C2"></path><path d="M95.0541 63.5706H94.2456V69.2301H95.0541V63.5706Z" fill="#5282C2"></path><path d="M100.054 64.2757H98.1123V63.5706H102.794V64.2757H100.853V69.2301H100.054V64.2757Z" fill="#5282C2"></path><path d="M107.708 68.5274V69.2301H103.602V63.5706H107.595V64.2757H104.411V66.0125H107.247V66.6988H104.411V68.5274H107.708Z" fill="#5282C2"></path><path d="M114.047 69.2301L114.037 65.1077L111.992 68.5438H111.621L109.574 65.1312V69.2301H108.798V63.5706H109.461L111.823 67.5496L114.15 63.5706H114.813L114.822 69.2301H114.047Z" fill="#5282C2"></path><path d="M119.688 64.6376H117.878V63.5706H122.809V64.6376H121V69.2301H119.688V64.6376Z" fill="#5282C2"></path><path d="M126.729 64.8938C126.524 64.7246 126.223 64.6399 125.831 64.6399H124.764V66.6119H125.831C126.223 66.6119 126.524 66.5249 126.729 66.3533C126.933 66.1818 127.037 65.9397 127.037 65.6247C127.037 65.3098 126.933 65.063 126.729 64.8938ZM127.06 69.2301L125.97 67.6531H124.766V69.2301H123.457V63.5706H125.906C126.407 63.5706 126.841 63.6552 127.21 63.822C127.579 63.9889 127.864 64.2263 128.064 64.5342C128.263 64.8421 128.362 65.204 128.362 65.6247C128.362 66.0454 128.261 66.4074 128.059 66.7129C127.857 67.0185 127.57 67.2512 127.196 67.4133L128.466 69.2325H127.06V69.2301Z" fill="#5282C2"></path><path d="M132.92 67.0232L132.023 64.8562L131.125 67.0232H132.92ZM133.334 68.0174H130.706L130.206 69.2301H128.864L131.386 63.5706H132.678L135.21 69.2301H133.835L133.334 68.0174Z" fill="#5282C2"></path><path d="M139.412 68.0739C139.586 67.961 139.675 67.7848 139.675 67.5474C139.675 67.0797 139.327 66.8446 138.632 66.8446H137.104V68.2431H138.632C138.977 68.2431 139.236 68.1867 139.412 68.0739ZM137.104 64.5578V65.8928H138.406C138.73 65.8928 138.975 65.8364 139.142 65.7235C139.308 65.6107 139.393 65.4438 139.393 65.2229C139.393 65.002 139.311 64.8351 139.142 64.727C138.975 64.6165 138.73 64.5601 138.406 64.5601H137.104V64.5578ZM140.716 66.8023C140.9 67.0421 140.991 67.3382 140.991 67.6884C140.991 68.1843 140.799 68.5651 140.413 68.833C140.028 69.1009 139.466 69.2326 138.728 69.2326H135.802V63.573H138.566C139.257 63.573 139.786 63.7046 140.155 63.9702C140.524 64.2334 140.707 64.593 140.707 65.0443C140.707 65.3193 140.641 65.5637 140.509 65.7799C140.378 65.9962 140.192 66.1654 139.955 66.29C140.279 66.3934 140.531 66.5626 140.714 66.8023" fill="#5282C2"></path><path d="M145.239 67.0232L144.341 64.8562L143.444 67.0232H145.239ZM145.653 68.0174H143.025L142.525 69.2301H141.183L143.705 63.5706H144.997L147.528 69.2301H146.154L145.653 68.0174Z" fill="#5282C2"></path><path d="M148.121 63.5706H149.43V68.1631H152.269V69.2301H148.121V63.5706Z" fill="#5282C2"></path><path d="M158.124 63.5706V69.2301H156.815V66.9104H154.244V69.2301H152.935V63.5706H154.244V65.8034H156.815V63.5706H158.124Z" fill="#5282C2"></path><path d="M163.119 67.9821C163.39 67.8293 163.601 67.6131 163.754 67.3381C163.907 67.0631 163.984 66.7506 163.984 66.4004C163.984 66.0502 163.907 65.7376 163.754 65.4626C163.601 65.1876 163.39 64.9737 163.119 64.8209C162.849 64.6682 162.548 64.5906 162.215 64.5906C161.881 64.5906 161.578 64.6682 161.31 64.8209C161.039 64.9737 160.828 65.1899 160.675 65.4626C160.522 65.7376 160.445 66.0502 160.445 66.4004C160.445 66.7506 160.522 67.0631 160.675 67.3381C160.828 67.6131 161.039 67.827 161.31 67.9821C161.58 68.1349 161.881 68.2124 162.215 68.2124C162.548 68.2124 162.849 68.1349 163.119 67.9821ZM160.626 68.9481C160.153 68.6943 159.784 68.3464 159.519 67.9022C159.251 67.458 159.119 66.9574 159.119 66.4027C159.119 65.848 159.253 65.3474 159.519 64.9032C159.784 64.459 160.156 64.1088 160.626 63.855C161.098 63.6011 161.627 63.4766 162.215 63.4766C162.802 63.4766 163.331 63.6035 163.799 63.855C164.266 64.1088 164.635 64.4566 164.906 64.9032C165.174 65.3474 165.31 65.848 165.31 66.4027C165.31 66.9574 165.176 67.458 164.906 67.9022C164.635 68.3464 164.266 68.6966 163.799 68.9481C163.329 69.2019 162.802 69.3289 162.215 69.3289C161.627 69.3289 161.098 69.2019 160.626 68.9481Z" fill="#5282C2"></path><path d="M165.912 69.122C165.804 69.0163 165.75 68.8846 165.75 68.7225C165.75 68.5603 165.804 68.4357 165.912 68.33C166.02 68.2242 166.149 68.1725 166.299 68.1725C166.45 68.1725 166.577 68.2242 166.678 68.3253C166.781 68.4287 166.833 68.5603 166.833 68.7225C166.833 68.8846 166.781 69.0163 166.676 69.122C166.57 69.2278 166.445 69.2795 166.299 69.2795C166.154 69.2795 166.02 69.2278 165.912 69.122Z" fill="#5282C2"></path><path d="M79.0093 76.5253L77.7895 73.752L76.5697 76.5253H79.0117H79.0093ZM79.2914 77.1717H76.283L75.6601 78.5866H74.8281L77.39 72.927H78.1914L80.7627 78.5866H79.9142L79.2914 77.1717Z" fill="#5282C2"></path><path d="M81.9654 76.8712C82.1557 77.2025 82.4213 77.4634 82.7574 77.6515C83.0935 77.8395 83.4696 77.9335 83.8856 77.9335C84.3016 77.9335 84.6659 77.8395 85.002 77.6515C85.3357 77.4634 85.599 77.2025 85.7893 76.8712C85.9797 76.5398 86.0761 76.1684 86.0761 75.7595C86.0761 75.3505 85.9797 74.9791 85.7893 74.6478C85.599 74.3164 85.3357 74.0555 85.002 73.8674C84.6682 73.6794 84.2969 73.5831 83.8856 73.5831C83.4743 73.5831 83.0959 73.6771 82.7574 73.8674C82.4213 74.0555 82.1557 74.3164 81.9654 74.6478C81.775 74.9791 81.6786 75.3505 81.6786 75.7595C81.6786 76.1684 81.775 76.5398 81.9654 76.8712ZM87.1596 79.1063C86.9762 79.3225 86.7624 79.4871 86.5203 79.5999C86.2782 79.7127 86.0173 79.7691 85.7353 79.7691C85.3804 79.7691 85.0466 79.6845 84.7364 79.5153C84.4261 79.346 84.0736 79.0546 83.6741 78.6456C83.1405 78.6198 82.6587 78.4764 82.231 78.2179C81.8032 77.9594 81.4694 77.6162 81.2297 77.1884C80.99 76.7607 80.8701 76.2836 80.8701 75.7618C80.8701 75.24 81.0017 74.7253 81.2626 74.2811C81.5235 73.8392 81.8831 73.4937 82.3414 73.2423C82.7997 72.9908 83.3145 72.8662 83.8856 72.8662C84.4567 72.8662 84.9644 72.9908 85.4227 73.2423C85.881 73.4937 86.2382 73.8369 86.4968 74.2764C86.7553 74.7159 86.8846 75.2095 86.8846 75.7595C86.8846 76.2225 86.7929 76.6479 86.6049 77.0357C86.4192 77.4235 86.1583 77.7502 85.8199 78.0134C85.4838 78.279 85.096 78.46 84.6588 78.5634C84.8469 78.7632 85.0302 78.9065 85.2041 78.9958C85.378 79.0852 85.559 79.1298 85.7423 79.1298C86.1419 79.1298 86.4874 78.9676 86.7765 78.6433L87.1572 79.104L87.1596 79.1063Z" fill="#5282C2"></path><path d="M88.5684 78.0064C88.1477 77.5739 87.9385 76.9558 87.9385 76.1473V72.9297H88.747V76.1144C88.747 77.3271 89.2782 77.9335 90.3405 77.9335C90.8576 77.9335 91.2548 77.7831 91.5298 77.4846C91.8047 77.1861 91.9411 76.7301 91.9411 76.1144V72.9297H92.7261V76.1473C92.7261 76.9605 92.5169 77.5833 92.0962 78.0111C91.6755 78.4388 91.0879 78.6527 90.3334 78.6527C89.579 78.6527 88.9914 78.4365 88.5707 78.0064" fill="#5282C2"></path><path d="M95.0541 72.9297H94.2456V78.5892H95.0541V72.9297Z" fill="#5282C2"></path><path d="M100.054 73.6324H98.1123V72.9297H102.794V73.6324H100.853V78.5892H100.054V73.6324Z" fill="#5282C2"></path><path d="M107.708 77.8842V78.5892H103.602V72.9297H107.595V73.6324H104.411V75.3717H107.247V76.058H104.411V77.8842H107.708Z" fill="#5282C2"></path><path d="M114.047 78.5892L114.037 74.4644L111.992 77.9006H111.621L109.574 74.4903V78.5892H108.798V72.9297H109.461L111.823 76.9064L114.15 72.9297H114.813L114.822 78.5892H114.047Z" fill="#5282C2"></path><path d="M119.825 73.9803V75.4751H122.443V76.5257H119.825V78.5892H118.514V72.9297H122.791V73.9803H119.825Z" fill="#5282C2"></path><path d="M124.279 78.0134C123.828 77.5669 123.604 76.9276 123.604 76.0979V72.9297H124.914V76.0509C124.914 77.0639 125.334 77.5716 126.176 77.5716C126.585 77.5716 126.897 77.4493 127.114 77.2049C127.33 76.9581 127.438 76.575 127.438 76.0533V72.932H128.733V76.1003C128.733 76.9299 128.507 77.5692 128.058 78.0158C127.609 78.4623 126.98 78.688 126.171 78.688C125.363 78.688 124.733 78.4647 124.284 78.0158" fill="#5282C2"></path><path d="M131.166 73.9967H129.356V72.9297H134.287V73.9967H132.478V78.5892H131.166V73.9967Z" fill="#5282C2"></path><path d="M135.589 78.0134C135.137 77.5669 134.914 76.9276 134.914 76.0979V72.9297H136.223V76.0509C136.223 77.0639 136.644 77.5716 137.485 77.5716C137.894 77.5716 138.207 77.4493 138.423 77.2049C138.639 76.9581 138.747 76.575 138.747 76.0533V72.932H140.042V76.1003C140.042 76.9299 139.817 77.5692 139.368 78.0158C138.919 78.4623 138.289 78.688 137.481 78.688C136.672 78.688 136.042 78.4647 135.593 78.0158" fill="#5282C2"></path><path d="M144.602 74.2502C144.398 74.081 144.097 73.9964 143.704 73.9964H142.637V75.9683H143.704C144.097 75.9683 144.398 75.8813 144.602 75.7098C144.807 75.5382 144.91 75.2961 144.91 74.9812C144.91 74.6662 144.807 74.4195 144.602 74.2502ZM144.934 78.5866L143.843 77.0095H142.64V78.5866H141.331V72.927H143.78C144.28 72.927 144.715 73.0116 145.084 73.1785C145.453 73.3454 145.737 73.5827 145.937 73.8906C146.137 74.1985 146.236 74.5605 146.236 74.9812C146.236 75.4019 146.135 75.7638 145.932 76.0694C145.73 76.3749 145.444 76.6076 145.072 76.7698L146.341 78.5889H144.936L144.934 78.5866Z" fill="#5282C2"></path><path d="M150.876 77.3387C151.146 77.1859 151.358 76.9697 151.51 76.6947C151.665 76.4197 151.741 76.1071 151.741 75.7569C151.741 75.4067 151.663 75.0941 151.51 74.8191C151.358 74.5442 151.146 74.3303 150.876 74.1775C150.605 74.0247 150.305 73.9472 149.971 73.9472C149.637 73.9472 149.334 74.0247 149.066 74.1775C148.796 74.3303 148.584 74.5465 148.431 74.8191C148.279 75.0941 148.201 75.4067 148.201 75.7569C148.201 76.1071 148.279 76.4197 148.431 76.6947C148.584 76.9697 148.796 77.1836 149.066 77.3387C149.336 77.4915 149.637 77.569 149.971 77.569C150.305 77.569 150.605 77.4915 150.876 77.3387ZM148.382 78.3047C147.91 78.0508 147.541 77.703 147.275 77.2588C147.007 76.8146 146.875 76.3139 146.875 75.7593C146.875 75.2046 147.009 74.704 147.275 74.2598C147.543 73.8156 147.912 73.4654 148.382 73.2115C148.854 72.9577 149.383 72.8331 149.971 72.8331C150.558 72.8331 151.085 72.96 151.555 73.2115C152.023 73.4654 152.392 73.8156 152.662 74.2598C152.93 74.704 153.066 75.2046 153.066 75.7593C153.066 76.3139 152.932 76.8146 152.662 77.2588C152.392 77.703 152.023 78.0532 151.555 78.3047C151.085 78.5585 150.558 78.6854 149.971 78.6854C149.383 78.6854 148.854 78.5585 148.382 78.3047Z" fill="#5282C2"></path><path d="M153.668 78.4786C153.56 78.3728 153.506 78.2412 153.506 78.079C153.506 77.9169 153.56 77.7923 153.668 77.6865C153.776 77.5808 153.905 77.5291 154.056 77.5291C154.206 77.5291 154.333 77.5808 154.434 77.6818C154.538 77.7852 154.589 77.9169 154.589 78.079C154.589 78.2412 154.538 78.3728 154.432 78.4786C154.326 78.5843 154.202 78.6361 154.056 78.6361C153.91 78.6361 153.776 78.5843 153.668 78.4786Z" fill="#5282C2"></path><path d="M77.9578 23.634C78.4302 23.3802 78.9685 23.2532 79.5749 23.2532C80.5009 23.2532 81.2929 23.5823 81.9487 24.238L82.957 23.2532C82.555 22.7949 82.0591 22.4447 81.4692 22.2073C80.8793 21.97 80.2235 21.8501 79.502 21.8501C78.6159 21.8501 77.8192 22.0405 77.1094 22.4212C76.3996 22.802 75.8449 23.3308 75.443 24.003C75.0411 24.6752 74.8413 25.4343 74.8413 26.2781C74.8413 27.1219 75.0411 27.881 75.443 28.5532C75.8449 29.2254 76.3996 29.7519 77.1047 30.135C77.8098 30.5157 78.6018 30.7061 79.4785 30.7061C80.1013 30.7061 80.7077 30.6121 81.3 30.4241C81.8899 30.236 82.407 29.9634 82.8512 29.6108V26.1794H81.3376V28.8611C80.8276 29.1572 80.2376 29.303 79.5654 29.303C78.9661 29.303 78.4326 29.1713 77.9602 28.9105C77.4878 28.6472 77.1188 28.2876 76.8532 27.827C76.5876 27.3686 76.4536 26.8516 76.4536 26.2781C76.4536 25.7046 76.5876 25.1617 76.8532 24.7034C77.1188 24.2451 77.4878 23.8878 77.9602 23.634" fill="#5282C2"></path><path d="M92.0986 27.8362C91.8354 28.2992 91.4758 28.6612 91.0151 28.9173C90.5545 29.1759 90.0398 29.3051 89.4639 29.3051C88.8881 29.3051 88.3734 29.1759 87.9151 28.9173C87.4568 28.6588 87.0948 28.2992 86.8316 27.8362C86.5683 27.3732 86.4367 26.8538 86.4367 26.2803C86.4367 25.7068 86.5683 25.1874 86.8316 24.7244C87.0948 24.2614 87.4544 23.8994 87.9151 23.6432C88.3734 23.3847 88.8905 23.2554 89.4639 23.2554C90.0374 23.2554 90.5545 23.3847 91.0151 23.6432C91.4734 23.9018 91.8354 24.2614 92.0986 24.7244C92.3619 25.1874 92.4935 25.7068 92.4935 26.2803C92.4935 26.8538 92.3619 27.3732 92.0986 27.8362ZM91.8401 22.4234C91.135 22.0427 90.3429 21.8523 89.4663 21.8523C88.5896 21.8523 87.7976 22.0427 87.0925 22.4234C86.3874 22.8042 85.8327 23.333 85.4308 24.0099C85.0289 24.6868 84.8291 25.4436 84.8291 26.2803C84.8291 27.117 85.0289 27.8738 85.4308 28.5507C85.8327 29.2276 86.3874 29.7564 87.0925 30.1372C87.7976 30.5179 88.5896 30.7106 89.4663 30.7106C90.3429 30.7106 91.135 30.5203 91.8401 30.1372C92.5452 29.7564 93.0999 29.2299 93.5018 28.5577C93.9037 27.8856 94.1058 27.1264 94.1058 26.2826C94.1058 25.4389 93.9037 24.6797 93.5018 24.0075C93.0999 23.3353 92.5452 22.8089 91.8401 22.4258" fill="#5282C2"></path><path d="M99.4027 28.6165L96.5353 21.9722H94.8008L98.566 30.5837H100.141L103.892 21.9722H102.294L99.4027 28.6165Z" fill="#5282C2"></path><path d="M106.903 26.8702H111.061V25.5541H106.903V23.3142H111.589V21.9722H105.302V30.5837H111.761V29.244H106.903V26.8702Z" fill="#5282C2"></path><path d="M117.5 26.7574H115.629V23.326H117.5C118.196 23.326 118.727 23.474 119.086 23.7678C119.446 24.0639 119.627 24.4847 119.627 25.0346C119.627 25.5846 119.446 26.0077 119.086 26.3085C118.724 26.607 118.196 26.7574 117.5 26.7574ZM120.767 26.7081C121.082 26.2403 121.242 25.6833 121.242 25.0346C121.242 24.3859 121.094 23.8571 120.8 23.3988C120.504 22.9405 120.081 22.588 119.526 22.3412C118.971 22.0944 118.323 21.9722 117.575 21.9722H114.033V30.5837H115.631V28.0736H117.575C117.723 28.0736 117.834 28.0689 117.907 28.0618L119.665 30.5837H121.387L119.406 27.7539C119.996 27.5236 120.45 27.1758 120.767 26.7081Z" fill="#5282C2"></path><path d="M129.582 27.8033L124.835 21.9722H123.516V30.5837H125.105V24.7526L129.853 30.5837H131.169V21.9722H129.582V27.8033Z" fill="#5282C2"></path><path d="M140.626 27.8362C140.363 28.2992 140.004 28.6612 139.543 28.9173C139.082 29.1759 138.568 29.3051 137.992 29.3051C137.416 29.3051 136.901 29.1759 136.443 28.9173C135.985 28.6588 135.623 28.2992 135.359 27.8362C135.096 27.3732 134.965 26.8538 134.965 26.2803C134.965 25.7068 135.096 25.1874 135.359 24.7244C135.623 24.2614 135.982 23.8994 136.443 23.6432C136.901 23.3847 137.418 23.2554 137.992 23.2554C138.565 23.2554 139.082 23.3847 139.543 23.6432C140.001 23.9018 140.363 24.2614 140.626 24.7244C140.89 25.1874 141.021 25.7068 141.021 26.2803C141.021 26.8538 140.89 27.3732 140.626 27.8362ZM140.368 22.4234C139.663 22.0427 138.871 21.8523 137.994 21.8523C137.117 21.8523 136.325 22.0427 135.62 22.4234C134.915 22.8042 134.361 23.333 133.959 24.0099C133.557 24.6868 133.357 25.4436 133.357 26.2803C133.357 27.117 133.557 27.8738 133.959 28.5507C134.361 29.2276 134.915 29.7564 135.62 30.1372C136.325 30.5179 137.117 30.7106 137.994 30.7106C138.871 30.7106 139.663 30.5203 140.368 30.1372C141.073 29.7564 141.628 29.2299 142.03 28.5577C142.432 27.8856 142.634 27.1264 142.634 26.2826C142.634 25.4389 142.432 24.6797 142.03 24.0075C141.628 23.3353 141.073 22.8089 140.368 22.4258" fill="#5282C2"></path><path d="M155.172 27.8339C154.913 28.2804 154.544 28.6259 154.065 28.868C153.585 29.1101 153.028 29.2299 152.398 29.2299H150.307V23.326H152.398C153.031 23.326 153.585 23.4482 154.065 23.6879C154.544 23.93 154.913 24.2731 155.172 24.722C155.43 25.1686 155.56 25.688 155.56 26.2779C155.56 26.8679 155.43 27.3873 155.172 27.8339ZM154.92 22.508C154.208 22.1508 153.39 21.9722 152.471 21.9722H148.706V30.5837H152.471C153.39 30.5837 154.206 30.4051 154.92 30.0479C155.635 29.6906 156.187 29.1853 156.582 28.5343C156.977 27.8832 157.172 27.1288 157.172 26.2779C157.172 25.4271 156.974 24.6727 156.582 24.0216C156.187 23.3706 155.635 22.8653 154.92 22.508Z" fill="#5282C2"></path><path d="M166.019 27.834C165.755 28.297 165.396 28.659 164.935 28.9152C164.477 29.1737 163.96 29.303 163.386 29.303C162.813 29.303 162.296 29.1737 161.837 28.9152C161.379 28.6566 161.017 28.297 160.754 27.834C160.493 27.371 160.361 26.8516 160.361 26.2781C160.361 25.7046 160.493 25.1852 160.754 24.7222C161.017 24.2592 161.377 23.8972 161.837 23.641C162.296 23.3825 162.813 23.2532 163.386 23.2532C163.96 23.2532 164.477 23.3825 164.935 23.641C165.393 23.8996 165.755 24.2615 166.019 24.7222C166.282 25.1852 166.413 25.7046 166.413 26.2781C166.413 26.8516 166.282 27.371 166.019 27.834ZM167.422 24.003C167.02 23.3308 166.465 22.8043 165.76 22.4212C165.055 22.0405 164.263 21.8501 163.386 21.8501C162.51 21.8501 161.717 22.0405 161.012 22.4212C160.307 22.802 159.753 23.3308 159.351 24.0077C158.949 24.6846 158.749 25.4414 158.749 26.2781C158.749 27.1148 158.949 27.8716 159.351 28.5485C159.753 29.2254 160.307 29.7542 161.012 30.135C161.717 30.5157 162.51 30.7061 163.386 30.7061C164.263 30.7061 165.055 30.5157 165.76 30.135C166.465 29.7542 167.02 29.2277 167.422 28.5532C167.824 27.881 168.026 27.1219 168.026 26.2781C168.026 25.4343 167.824 24.6752 167.422 24.003Z" fill="#5282C2"></path><path d="M89.1195 46.0158C89.8575 45.3859 90.2265 44.4881 90.2265 43.3223C90.2265 42.1566 89.8575 41.2517 89.1195 40.6101C88.3815 39.9684 87.2862 39.6464 85.8361 39.6464H81.9111V46.963H85.8361C87.2886 46.963 88.3815 46.648 89.1195 46.0158ZM92.1537 35.202C93.8178 35.9517 95.1034 37.0211 96.0083 38.4149C96.9131 39.8062 97.3644 41.4444 97.3644 43.3223C97.3644 45.2002 96.9108 46.8313 96.0083 48.211C95.1034 49.5906 93.8178 50.6553 92.1537 51.4051C90.4874 52.1548 88.5249 52.5285 86.2638 52.5285H81.9087V59.06H74.8413V34.0762H86.2615C88.5225 34.0762 90.485 34.4522 92.1514 35.1996" fill="#5282C2"></path><path d="M105.718 34.0786H98.6504V59.0625H105.718V34.0786Z" fill="#5282C2"></path><path d="M124.703 48.996L121.49 41.0002L118.277 48.996H124.701H124.703ZM126.774 54.2066H116.209L114.246 59.06H107.036L118.066 34.0762H125.025L136.09 59.06H128.738L126.776 54.2066H126.774Z" fill="#5282C2"></path><path d="M137.569 56.5288C135.51 54.5076 134.48 51.6402 134.48 47.9267V34.0786H141.548V47.7128C141.548 51.7107 143.13 53.7085 146.296 53.7085C149.461 53.7085 151.008 51.7107 151.008 47.7128V34.0786H157.967V47.9267C157.967 51.6378 156.938 54.5052 154.879 56.5288C152.82 58.5525 149.936 59.5631 146.223 59.5631C142.509 59.5631 139.625 58.5525 137.566 56.5288" fill="#5282C2"></path><path d="M166.96 34.0012H159.893V38.542L166.96 34.0012Z" fill="#5282C2"></path><path d="M159.893 40.5961V58.985H166.96V36.053L159.893 40.5961Z" fill="#5282C2"></path></svg>
