<svg xmlns="http://www.w3.org/2000/svg" width="2859" height="1072" viewBox="0 0 2859 1072" fill="none"><path d="M272.632 162.932C255.59 144.137 250.329 119.822 257.94 95.7707C265.021 73.4275 281.236 53.1543 301.091 40.6027C347.088 11.5237 406.387 19.4753 452.648 43.4285C476.507 55.7829 498.083 71.9489 517.441 90.4149C535.542 107.665 550.532 126.953 565.953 146.47C580.049 164.279 597.588 182.482 621.049 186.655C644.312 190.828 667.575 183.829 686.338 170.029C704.605 156.59 718.9 139.241 733.295 121.991C749.245 102.901 766.584 85.9463 787.63 72.4089C830.748 44.6114 882.37 29.2668 933.728 28.4125C1033.66 26.7368 1132.51 79.6376 1181.28 167.137C1230.46 255.294 1223.11 366.55 1177.28 454.445C1134.23 536.983 1058.65 602.173 971.22 635.03C874.561 671.371 764.897 665.062 669.627 626.98C652.784 620.244 636.635 612.424 621.843 602.041C607.978 592.315 594.245 582.359 579.586 573.751C564.927 565.142 549.043 556.895 532.067 556.106C516.382 555.383 500.366 565.635 498.844 582.031C497.454 596.981 508.44 610.847 517.507 621.624C527.633 633.65 539.215 644.329 550.234 655.533C552.286 657.603 554.304 659.706 556.224 661.908C556.819 662.565 559.103 665.686 557.018 662.729C557.58 663.551 558.11 664.536 558.739 665.292C559.367 666.048 559.202 667.855 558.275 664.076C558.54 665.161 558.11 664.175 558.077 662.039C558.044 659.115 560.36 655.599 563.702 653.989C562.875 654.383 560.956 654.153 563.768 654.088C563.04 654.088 562.346 654.088 561.618 654.088C561.055 654.088 558.97 653.825 561.187 654.12C559.93 653.956 558.672 653.66 557.448 653.398C548.679 651.459 540.241 648.108 531.968 644.723C531.074 644.362 530.214 644 529.321 643.639C527.401 642.85 531.538 644.559 528.559 643.31C526.574 642.489 524.589 641.635 522.603 640.813C521.577 640.386 520.518 639.959 519.493 639.532C516.349 638.283 520.518 640.09 517.805 638.842C502.252 631.744 487.129 623.76 471.312 617.188C455.494 610.617 436.268 603.454 418.2 606.345C403.673 608.678 391.033 621.427 392.522 636.673C394.011 651.919 406.652 661.119 418.399 668.052C444.938 683.692 476.011 691.775 505.561 699.76C509.698 700.877 513.834 702.093 517.97 703.243C521.809 704.327 525.614 705.313 528.096 706.758C529.287 707.448 528.725 707.416 528.89 707.35L529.254 707.711C528.295 706.956 527.865 705.871 527.964 704.524C527.732 703.341 527.17 705.378 528.096 704.425C528.593 703.9 528.493 703.735 528.626 703.834L529.453 703.538C528.791 703.768 528.129 703.933 527.434 704.064C527.964 703.998 529.354 703.965 527.037 704.064C525.019 704.163 522.967 704.064 520.948 703.768C518.268 703.407 512.345 701.863 508.473 700.91C496.031 697.788 483.059 697.295 470.253 697.525C454.568 697.854 438.916 699.53 423.23 700.187C413.965 700.581 404.633 700.187 395.401 701.205C386.334 702.224 377.002 703.933 369.49 709.387C359.563 716.616 355.956 729.43 361.217 740.667C367.108 753.285 380.94 759.035 394.342 758.871C401.522 758.805 408.637 757.293 415.719 756.242C422.734 755.191 429.915 755.125 436.996 754.566C452.251 753.35 467.506 751.839 482.828 751.773C490.306 751.773 498.182 751.708 505.594 752.858C507.216 753.121 509.532 753.646 510.624 754.139C511.518 754.501 514.661 756.669 513.503 755.191C512.841 754.369 514.959 753.482 512.676 756.143C511.253 757.786 508.903 758.871 506.918 759.692C500.432 762.452 493.384 764.161 486.666 766.329C470.782 771.455 454.899 776.581 439.015 781.739C425.315 786.175 410.556 791.071 405.361 805.89C400.497 819.756 409.398 833.523 423.396 836.645C436.169 839.503 449.968 835.955 462.377 832.8C476.871 829.12 491.001 823.863 504.436 817.39C512.312 813.579 520.651 808.617 529.519 807.664C528.89 807.73 533.821 807.993 532.431 807.73C533.854 807.993 533.556 807.631 534.549 808.913C534.45 808.781 533.292 807.598 533.656 807.401C533.656 807.401 533.391 808.814 533.391 808.847C532.795 811.213 531.736 813.283 530.545 815.419C524.919 825.67 518.103 835.232 512.51 845.516C509.334 851.365 506.388 857.345 503.708 863.424C500.267 871.277 497.454 879.622 503.179 887.278C512.576 899.896 529.089 891.418 539.182 884.65C550.069 877.388 559.665 868.484 569.129 859.514C578.064 851.069 586.965 842.395 597.422 835.79C607.78 829.252 619.196 825.374 631.142 822.812C656.655 817.357 683.062 817.949 708.973 816.733C812.085 811.903 916.289 788.837 1007.55 739.879C1030.06 727.82 1051.66 714.086 1071.98 698.675C1092.3 683.265 1110.67 666.113 1128.63 648.042C1135.19 641.437 1143.79 632.336 1153.75 631.974C1156.03 631.876 1157.95 632.533 1160.07 633.322C1157.49 632.369 1160.07 633.486 1161.13 634.012C1161.53 634.209 1161.83 634.472 1162.22 634.669C1164.17 635.72 1160.4 632.894 1161.92 634.406C1162.75 635.227 1164.8 638.053 1162.92 635.063C1163.31 635.687 1163.84 636.87 1164.34 637.396C1165.5 638.579 1164.04 635.129 1164.08 636.772C1164.08 637.067 1164.34 637.527 1164.41 637.823C1164.7 639.63 1164.54 640.616 1164.64 638.217C1164.57 639.466 1164.67 640.846 1164.7 642.095C1164.74 645.413 1165.3 640.452 1164.57 643.343C1164.31 644.46 1164.08 645.61 1163.78 646.727C1163.45 647.91 1163.08 649.093 1162.69 650.243C1162.42 650.966 1160.53 655.468 1161.76 652.74C1149.28 680.505 1128.54 701.665 1107.29 723.581C1089.85 741.587 1071.49 758.641 1052.89 775.464C982.239 839.372 901.629 891.418 814.765 930.979C723.897 972.379 625.748 1000.18 526.111 1009.84C427.631 1019.37 327.167 1011.12 233.254 979.181C176.337 959.828 122.034 933.706 65.978 912.086C60.4187 909.95 53.8667 914.452 52.4107 919.742C50.6899 925.952 54.5285 931.077 60.1209 933.213C118.295 955.655 174.583 983.058 233.916 1002.48C281.799 1018.15 331.568 1027.81 381.767 1032.41C483.423 1041.74 586.8 1029.42 684.783 1001.79C783.064 974.088 877.374 930.782 962.12 874.069C1021.52 834.345 1076.75 787.292 1126.09 735.706C1147.5 713.297 1170.69 688.654 1182.54 659.641C1186.84 649.093 1189.06 636.476 1183.27 626.027C1174.3 609.796 1152.76 606.871 1137.01 614.133C1125.99 619.226 1117.15 628.163 1108.85 636.772C1100.04 645.873 1090.91 654.613 1081.35 662.926C1062.15 679.618 1041.41 694.47 1019.6 707.678C975.323 734.49 927.109 754.172 877.274 768.169C827.538 782.134 776.313 790.48 724.757 793.897C698.714 795.605 672.506 795.145 646.563 798.267C632.83 799.91 619.097 802.276 606.125 807.171C593.153 812.067 581.836 819.164 571.181 827.937C561.121 836.217 552.12 845.615 542.392 854.256C538.255 857.936 534.02 861.518 529.453 864.705C527.037 866.381 524.522 867.958 521.974 869.436C521.974 869.436 518.731 871.277 518.864 871.211C517.937 871.539 517.011 871.835 516.051 872.032H517.871C522.074 880.312 521.412 877.848 522.735 874.464C523.463 872.591 524.39 870.718 525.25 868.911C526.673 865.921 528.129 862.964 529.685 860.006C533.06 853.566 536.733 847.29 540.505 841.08C545.932 832.143 553.08 823.206 555.066 812.757C557.448 800.238 549.903 788.738 537.064 786.372C525.813 784.302 514.794 788.475 504.668 792.944C493.946 797.708 483.721 803.064 472.569 806.876C460.061 811.147 445.17 816.273 432.033 815.78C430.378 815.714 428.128 815.714 426.539 814.761C426.076 814.466 425.977 814.137 425.977 814.071C425.514 809.307 433.687 806.58 436.93 805.463C451.755 800.403 466.745 795.803 481.669 790.972C489.611 788.41 497.553 785.847 505.495 783.284C511.716 781.279 518.235 779.275 523.629 775.464C534.979 767.414 540.373 751.379 529.354 740.569C519.724 731.139 505.429 730.547 492.722 730.022C477.037 729.397 461.351 730.646 445.732 731.927C430.941 733.143 416.38 734.457 401.688 736.396C396.493 737.086 390.305 737.809 385.44 735.41C383.355 734.392 382.065 732.979 380.907 731.007C380.841 730.909 380.841 730.613 380.774 730.514C380.874 729.102 380.774 728.97 380.609 730.054C380.741 729.364 380.907 728.707 381.138 728.05C381.271 729.036 380.642 728.937 381.304 727.984C380.046 729.824 381.734 727.492 382.098 727.196C380.675 728.313 384.282 725.882 385.076 725.52C383.19 726.407 386.565 725.027 386.598 724.994C387.326 724.764 388.087 724.534 388.849 724.337C390.007 724.041 391.165 723.779 392.323 723.549C393.117 723.384 393.912 723.253 394.706 723.121C393.978 723.187 394.011 723.187 394.772 723.121C403.806 721.939 413.038 722.431 422.105 722.07C449.736 721.019 478.261 715.86 505.396 722.694C514.76 725.027 525.184 727.524 534.714 724.764C546.296 721.446 553.576 708.106 548.017 696.934C541.63 684.119 523.364 681.819 510.624 678.369C496.693 674.591 482.761 670.681 469.095 666.081C453.376 660.791 440.239 656.092 426.109 647.023C424.786 646.169 423.528 645.282 422.238 644.395C419.855 642.719 423.363 645.347 422.006 644.23C421.476 643.77 420.914 643.343 420.384 642.85C419.359 641.963 418.432 641.01 417.472 640.057C416.943 639.532 416.447 638.907 415.95 638.349C417.836 640.517 416.314 638.907 415.95 638.25C415.388 637.232 413.965 633.519 414.924 636.739C414.56 635.49 414.461 632.697 414.428 636.016C414.428 634.997 414.428 633.946 414.428 632.927C414.428 636.114 414.461 634.242 414.527 633.322C414.593 632.5 415.851 630.759 414.395 633.387C414.759 632.73 416.711 629.74 415.222 631.613C415.752 630.923 416.38 630.364 416.976 629.74C418.862 627.867 415.123 630.693 417.439 629.444C417.936 629.181 418.432 628.886 418.928 628.623C421.344 627.341 416.811 629.149 419.524 628.459C420.087 628.294 420.682 628.163 421.245 627.999C421.84 627.867 422.436 627.736 423.032 627.637C421.642 627.802 421.609 627.801 422.932 627.67C431.404 627.144 436.798 628.459 445.6 631.087C462.807 636.246 478.327 644.132 494.608 652.083C500.829 655.139 507.083 658.063 513.536 660.659C514.099 660.889 517.573 662.335 514.794 661.152C516.283 661.776 517.772 662.401 519.228 663.025C524.158 665.095 529.122 667.165 534.152 669.038C542.524 672.192 551.194 675.149 560.195 675.872C569.195 676.595 579.818 672.751 580.082 662.499C580.38 651.13 566.714 640.813 559.467 633.65C553.709 627.933 547.918 622.281 542.325 616.367C536.733 610.453 531.472 604.538 527.534 598.854C525.614 596.061 523.993 593.137 522.371 590.179C522.074 589.621 521.379 587.715 522.239 590.015C521.941 589.259 521.643 588.471 521.412 587.682C521.246 587.189 521.147 586.664 520.982 586.171C520.022 583.279 520.783 587.091 520.783 585.415C520.783 584.495 521.081 580.651 520.618 584.232C520.684 583.838 520.849 582.589 521.147 582.294C521.147 582.294 519.79 584.725 520.882 583.082C521.379 582.326 521.809 581.538 522.305 580.815C520.982 582.655 521.809 581.439 522.173 581.078C522.735 580.487 523.298 579.928 523.927 579.402C521.71 581.374 524.191 579.501 524.589 579.106C525.052 578.679 527.037 578.088 524.423 579.041C525.151 578.778 525.912 578.515 526.673 578.318C527.203 578.186 527.699 578.088 528.229 577.956C530.876 577.365 525.78 577.989 528.559 577.956C530.015 577.956 531.438 577.956 532.928 577.989C533.391 577.989 536.336 578.449 533.656 578.022C534.615 578.186 535.542 578.351 536.501 578.548C545.039 580.388 550.4 582.918 557.58 586.598C573.398 594.681 588.057 604.9 602.551 615.151C615.986 624.647 629.024 632.796 644.114 639.663C669.329 651.163 695.703 660.133 722.639 666.738C775.155 679.585 830.682 684.809 884.521 678.435C981.214 666.968 1072.45 619.357 1137.97 547.957C1206.27 473.568 1245.41 372.761 1235.59 271.592C1230.46 218.691 1212.16 167.105 1179.73 124.554C1148.39 83.4491 1106.36 51.1172 1058.61 30.9426C960.664 -10.4252 842.429 1.14071 757.683 66.6917C738.027 81.9048 722.805 100.502 706.822 119.264C693.188 135.266 678.264 152.122 658.608 160.829C639.249 169.405 618.005 166.875 601.956 153.074C584.517 138.058 572.372 117.851 557.448 100.568C521.776 59.2659 476.044 23.681 422.999 7.77795C370.384 -7.99372 307.808 -0.863608 267.834 39.2227C250.197 56.9001 236.728 80.0647 233.155 104.905C229.25 132.177 238.482 158.003 256.914 178.342C266.444 188.856 282.03 173.315 272.533 162.833L272.632 162.932Z" fill="#EF817D"></path><path d="M208.686 32.192C129.267 26.0476 53.8856 83.0884 37.5716 160.37C29.8283 196.94 35.4207 234.562 52.7936 267.617C69.7032 299.784 96.4739 326.038 126.157 346.705C194.854 394.546 279.369 410.909 362.031 401.643C411.601 396.09 459.848 382.75 506.077 364.383C540.988 350.484 575.502 335.369 605.913 313.223C629.738 295.874 655.318 274.944 682.618 265.12C685.464 264.101 688.31 263.181 691.255 262.491C692.711 262.13 694.2 261.834 695.689 261.604C697.013 261.407 695.689 261.604 695.457 261.604C696.483 261.472 697.542 261.407 698.601 261.374C699.958 261.308 701.282 261.374 702.638 261.44C704.591 261.538 701.414 260.98 704.028 261.637C705.252 261.932 706.444 262.228 707.635 262.655C709.19 263.214 706.08 261.9 707.569 262.655C708.264 263.017 708.926 263.411 709.621 263.805C709.985 264.003 711.308 264.988 709.72 263.74C710.216 264.134 710.746 264.561 711.176 265.021C712.003 265.843 712.797 266.631 713.459 267.584C715.875 271.034 716.47 275.503 716.073 279.61C715.114 288.843 709.488 296.597 702.241 302.117C693.538 308.755 683.048 312.862 672.922 316.805C659.554 322.029 664.749 339.969 678.78 337.932C705.815 334.055 732.884 330.211 759.919 326.333C773.453 324.395 786.955 322.456 800.489 320.518C805.85 319.762 811.21 318.71 816.637 318.513C819.119 318.415 824.281 317.922 826.399 319.696C830.139 322.818 818.424 328.338 815.81 329.586C803.699 335.435 791.157 340.561 778.847 346.015C753.698 357.154 728.582 368.325 703.432 379.464C693.141 384.031 698.667 400.066 708.992 399.902C731.825 399.54 754.658 399.146 777.524 398.784C786.591 398.62 796.253 397.536 805.254 399.179C808.795 399.803 816.737 401.61 816.737 405.06C816.737 414.622 783.579 416.002 777.788 416.856C754.558 420.208 731.328 423.559 708.098 426.911C703.399 427.601 699.991 433.121 699.991 437.491C699.991 442.682 703.532 446.198 708.098 448.071C728.416 456.318 748.767 464.533 769.085 472.78C779.046 476.821 789.006 480.863 799 484.904C806.015 487.73 813.097 490.983 818.623 496.207C821.833 499.23 825.903 503.732 821.932 507.872C819.814 510.073 815.744 509.942 811.839 509.35C798.967 507.477 786.558 500.807 774.347 496.536C750.918 488.354 727.49 480.173 704.028 471.991C698.403 470.02 691.917 474.226 690.461 479.647C685.232 498.737 699.958 513.622 715.246 522.592C721.103 526.042 749.793 538.791 739.138 548.911C733.744 554.037 724.412 551.408 718.423 549.207C708.893 545.691 699.859 540.729 690.428 536.885C670.771 528.868 650.321 522.888 629.573 518.485C542.411 499.953 452.8 507.97 364.711 498.737C321.99 494.269 279.634 484.641 239.196 470.151C199.388 455.891 163.517 434.632 129.168 410.318C112.391 398.423 96.3416 384.229 78.1745 374.503C61.1325 365.368 40.1527 361.491 22.482 371.414C5.80408 380.746 -1.24435 400.592 0.178574 418.795C1.86622 440.382 10.0067 460.524 19.0406 480.008C37.4723 519.799 56.2019 559.425 78.5385 597.212C100.478 634.341 125.131 669.827 152.067 703.539C205.377 770.371 268.383 829.614 337.973 879.524C401.608 925.164 471.761 961.997 546.315 986.575C622.326 1011.64 702.539 1023.05 782.587 1020.94C865.248 1018.77 946.95 1002.41 1025.18 976.29C1064.32 963.213 1102.64 947.802 1140.3 930.979C1159.3 922.502 1178.09 913.598 1196.76 904.43C1215.55 895.197 1233.95 884.88 1252.98 876.14C1270.32 868.188 1288.91 863.753 1307.58 860.171C1321.51 857.51 1315.62 836.349 1301.72 839.044C1282.5 842.724 1263.83 847.652 1245.83 855.44C1227.03 863.588 1209.1 873.906 1190.73 882.974C1154.13 901.079 1116.97 918.165 1079.02 933.279C1004.4 962.95 926.335 985.556 846.287 994.592C766.835 1003.53 686.093 999.882 608.262 981.35C533.575 963.574 462.628 932.984 397.438 892.799C327.682 849.788 264.213 796.329 208.885 736.134C150.975 673.146 102.331 601.877 64.7064 525.221C55.2423 505.9 46.076 486.35 37.1083 466.8C29.3319 449.779 20.3642 429.342 22.1842 410.219C23.7395 393.987 36.7443 384.754 52.7936 388.04C71.7879 391.917 87.8702 407.459 103.026 418.499C136.746 443.077 171.525 466.241 210.241 482.374C249.322 498.672 290.653 509.81 332.513 516.415C419.014 530.051 507.433 521.508 594.033 534.322C614.616 537.378 635.066 541.617 655.02 547.629C665.014 550.652 674.875 554.07 684.504 558.045C694.134 562.021 702.903 566.851 712.499 570.367C729.508 576.577 752.54 574.08 760.813 555.745C768.986 537.608 755.353 521.409 740.825 511.848C732.95 506.656 708.198 498.277 711.672 485.529C707.139 488.091 702.605 490.622 698.105 493.184C722.361 501.662 746.583 510.106 770.839 518.583C785.432 523.676 800.257 531.825 816.141 531.595C834.672 531.332 850.523 514.476 844.269 495.747C837.386 475.146 813.394 467.26 795.227 459.9C768.126 448.925 741.024 437.951 713.889 426.943V448.071C735.432 444.949 756.974 441.861 778.516 438.739C795.26 436.308 814.983 436.012 828.749 424.939C841.39 414.786 841.886 395.926 828.914 385.773C815.843 375.521 798.206 376.54 782.52 376.803C758 377.197 733.446 377.591 708.926 378.018C710.779 384.82 712.632 391.622 714.485 398.456C737.252 388.336 760.051 378.248 782.818 368.128C794.599 362.904 806.379 357.68 818.16 352.455C827.16 348.479 836.525 344.471 842.978 336.749C849.431 329.028 851.681 318.48 846.419 309.445C841.721 301.362 832.819 297.944 823.917 296.959C814.089 295.874 804.261 298.043 794.566 299.423C781.892 301.23 769.218 303.037 756.544 304.845C728.648 308.82 700.752 312.829 672.856 316.805L678.713 337.932C699.197 329.882 722.46 320.419 732.652 299.423C741.52 281.154 739.767 258.351 722.228 245.931C698.8 229.305 666.006 246.884 645.126 259.468C620.407 274.353 598.6 293.443 574.112 308.59C556.541 319.433 536.785 327.713 517.857 335.895C495.289 345.687 472.125 354.197 448.564 361.327C364.479 386.726 271.559 393.034 189.593 356.99C128.308 330.046 63.9784 279.084 56.7314 208.145C49.1866 134.182 105.011 63.6367 179.764 54.6009C189.328 53.4509 199.024 53.418 208.62 54.1409C222.783 55.2252 222.717 33.3091 208.62 32.2248L208.686 32.192Z" fill="#5282C2"></path><path d="M1412.36 237.583V27.1955H1472.89C1516.37 27.1955 1543.6 50.7544 1543.6 89.1978C1543.6 129.547 1515.74 153.566 1471.3 153.566H1434.97V237.55H1412.33L1412.36 237.583ZM1435 45.0701V135.56H1472.92C1502.07 135.56 1519.74 119.427 1519.74 91.7607C1519.74 61.696 1503 45.1029 1471.33 45.1029H1435V45.0701Z" fill="#5282C2"></path><path d="M1676.87 208.353C1676.87 218.967 1681.33 223.371 1688.35 223.371C1692.65 223.371 1695.66 222.253 1697.42 221.465L1699.63 237.139C1696.62 238.717 1690.24 240.787 1683.22 240.787C1668.1 240.787 1659.49 230.666 1657.57 217.061C1644.37 232.243 1626.99 240.787 1608.99 240.787C1582.38 240.787 1561.66 223.371 1561.66 197.903C1561.66 168.164 1585.39 154.066 1614.25 150.287C1627.45 148.381 1641.49 148.71 1654.56 150.123V131.622C1654.56 106.779 1644.53 91.9253 1617.59 91.9253C1600.38 91.9253 1583.97 97.939 1575.99 102.047L1569.6 86.076C1578.04 81.0154 1597.64 72.4715 1620.27 72.4715C1657.07 72.4715 1676.83 93.667 1676.83 128.171V208.386L1676.87 208.353ZM1614.58 221.958C1629.71 221.793 1644.2 213.578 1654.56 201.222V165.469C1645.33 164.352 1633.84 163.727 1622.23 165.009C1601.84 167.375 1584.76 175.623 1584.76 195.208C1584.76 211.343 1596.08 221.958 1614.55 221.958H1614.58Z" fill="#5282C2"></path><path d="M1793.23 221.333C1804.55 221.333 1816.96 218.803 1827.65 214.531L1833.54 230.83C1822.55 236.679 1805.34 240.787 1790.22 240.787C1743.22 240.787 1711.52 207.4 1711.52 158.207C1711.52 109.013 1744.18 72.4715 1792.14 72.4715C1807.59 72.4715 1821.92 77.072 1830.69 81.9684L1823.84 98.1033C1815.4 94.9486 1804.88 91.9253 1791.18 91.9253C1757.25 91.9253 1735.25 116.604 1735.25 155.381C1735.25 196.359 1756.59 221.366 1793.23 221.366V221.333Z" fill="#5282C2"></path><path d="M1889.67 75.6336H1947.05V93.8367H1890.6V191.292C1890.6 212.978 1899.37 221.981 1919.59 221.981C1925.97 221.981 1935.2 220.569 1940.3 218.991L1944.6 236.242C1937.29 238.772 1924.85 240.842 1915.78 240.842C1885.2 240.842 1868.16 225.037 1868.16 195.137V93.9025L1870.08 39.786L1889.67 36.7959V75.6993V75.6336Z" fill="#5282C2"></path><path d="M1965.74 157.878C1965.74 106.614 1996.15 72.4387 2041.59 72.4387C2087.03 72.4387 2115.53 105.99 2115.53 155.184C2115.53 204.377 2085.08 240.787 2039.67 240.787C1994.27 240.787 1965.74 207.104 1965.74 157.878ZM2091.76 157.878C2091.76 116.44 2071.84 90.8082 2039.67 90.8082C2009.26 90.8082 1989.5 116.111 1989.5 155.184C1989.5 196.786 2009.42 222.418 2041.59 222.418C2072.01 222.418 2091.8 197.246 2091.8 157.878H2091.76Z" fill="#5282C2"></path><path d="M2210.66 76.7726L2213.7 97.0129C2228.2 82.1284 2247.49 73.6183 2265.62 73.6183C2308.15 73.6183 2335.41 106.837 2335.41 156.518C2335.41 206.199 2300.83 241.948 2255.43 241.948C2243.82 241.948 2228.66 238.301 2216.38 231.992V301.42H2194.08V76.7726H2210.66ZM2216.38 212.639C2227.7 218.816 2242.03 222.463 2257.02 222.463C2289.22 222.463 2311.69 196.21 2311.69 159.015C2311.69 118.535 2292.73 93.0372 2261.36 93.0372C2243.19 93.0372 2225.52 102.697 2216.42 114.395V212.639H2216.38Z" fill="#5282C2"></path><path d="M2383.62 162.213C2384.41 200.167 2404.34 222.48 2440.34 222.48C2453.88 222.48 2469.96 219.325 2480.02 215.514L2485.45 232.437C2474.63 237.333 2455.33 241.934 2437.5 241.934C2390 241.934 2359.76 208.383 2359.76 159.189C2359.76 109.996 2388.91 73.5856 2434.82 73.5856C2471.78 73.5856 2492.8 95.7341 2492.8 132.604C2492.8 144.303 2489.79 156.33 2487.87 162.18H2383.65L2383.62 162.213ZM2383.78 146.078H2468.87C2470.13 142.134 2470.62 137.205 2470.46 131.191C2470.29 105.231 2455.63 91.9551 2432.07 91.9551C2403.24 91.9551 2385.7 114.104 2383.78 146.078Z" fill="#5282C2"></path><path d="M2552.29 4.65369V238.764H2529.99V7.80802L2552.29 4.65369Z" fill="#5282C2"></path><path d="M2703.13 209.533C2703.13 220.147 2707.6 224.55 2714.62 224.55C2718.92 224.55 2721.93 223.433 2723.72 222.644L2725.93 238.319C2722.89 239.896 2716.53 241.967 2709.52 241.967C2694.39 241.967 2685.79 231.845 2683.87 218.241C2670.67 233.423 2653.29 241.967 2635.29 241.967C2608.68 241.967 2587.96 224.55 2587.96 199.083C2587.96 169.343 2611.69 155.246 2640.55 151.467C2653.75 149.561 2667.79 149.889 2680.86 151.302V132.801C2680.86 107.958 2670.83 93.1049 2643.89 93.1049C2626.68 93.1049 2610.27 99.1185 2602.29 103.226L2595.9 87.2556C2604.34 82.195 2623.94 73.651 2646.57 73.651C2683.37 73.651 2703.13 94.8466 2703.13 129.351V209.565V209.533ZM2640.85 223.137C2656 222.973 2670.47 214.757 2680.83 202.402V166.648C2671.59 165.531 2660.11 164.907 2648.49 166.188C2628.1 168.554 2611.06 176.803 2611.06 196.388C2611.06 212.523 2622.38 223.137 2640.85 223.137Z" fill="#5282C2"></path><path d="M2745.11 212.359C2753.71 216.631 2769.96 222.644 2789.26 222.644C2809.48 222.644 2823.34 215.218 2823.34 199.379C2823.34 184.657 2812.98 177.066 2789.26 167.569L2775.39 162.18C2753.41 153.636 2740.64 140.031 2740.64 118.507C2740.64 90.3449 2765.82 73.5856 2794.95 73.5856C2815.5 73.5856 2831.75 79.5992 2838.77 82.9182L2833.17 101.123C2825.86 98.133 2811.83 93.0395 2794.45 93.0395C2775.19 93.0395 2762.28 102.043 2762.28 117.094C2762.28 129.417 2767.88 137.041 2792.7 146.833L2806.73 152.387C2831.25 162.048 2845.12 175.489 2845.12 198.261C2845.12 224.846 2825.03 241.934 2788.86 241.934C2766.39 241.934 2749.01 236.249 2738.52 230.235L2745.04 212.359H2745.11Z" fill="#5282C2"></path><path d="M1386.74 1052.84V988.535H1405.54C1419.07 988.535 1427.41 995.797 1427.41 1007.63C1427.41 1020.11 1419.04 1027.54 1405.07 1027.54H1394.68V1052.84H1386.74ZM1394.68 1021.23H1405.54C1413.97 1021.23 1419.04 1016.4 1419.04 1008.32C1419.04 999.675 1414.07 994.811 1405.07 994.811H1394.68V1021.2V1021.23Z" fill="#AFCE6D"></path><path d="M1444.25 1003.32L1445.48 1010.29C1448.06 1007.07 1455.17 1002.73 1461.69 1002.37V1010.26C1455.74 1010.58 1449.32 1013.02 1446.21 1016.07V1052.88H1438.36V1003.36H1444.25V1003.32Z" fill="#AFCE6D"></path><path d="M1476.71 982.224C1479.49 982.224 1481.91 984.59 1481.91 987.351C1481.91 990.571 1479.42 993.003 1476.25 993.003C1473.43 993.003 1471.02 990.637 1471.02 987.778C1471.02 984.623 1473.47 982.224 1476.68 982.224H1476.71ZM1480.42 1003.32V1052.84H1472.57V1003.32H1480.42Z" fill="#AFCE6D"></path><path d="M1503.75 1003.32L1504.58 1009.37C1509.74 1004.87 1515.6 1002.34 1520.99 1002.34C1527.28 1002.34 1531.75 1004.97 1534.1 1009.93C1540.72 1004.28 1546.91 1002.34 1551.77 1002.34C1561.57 1002.34 1566.86 1008.51 1566.86 1020.25V1052.84H1558.99V1021.43C1558.99 1013.41 1555.71 1009.3 1549.39 1009.3C1545.91 1009.3 1540.95 1011.14 1536.09 1015.15V1052.88H1528.21V1021.46C1528.21 1013.44 1524.93 1009.34 1518.61 1009.34C1514.57 1009.34 1508.82 1011.9 1505.27 1015.35V1052.91H1497.43V1003.39H1503.75V1003.32Z" fill="#AFCE6D"></path><path d="M1587.64 1029.81C1587.94 1040.69 1593.76 1046.86 1604.15 1046.86C1608.56 1046.86 1613.35 1045.85 1616.43 1044.7L1618.32 1050.71C1615.01 1052.19 1609.05 1053.8 1603.13 1053.8C1588.37 1053.8 1579.2 1043.54 1579.2 1028.49C1579.2 1013.44 1588.1 1002.34 1602.4 1002.34C1613.88 1002.34 1620.4 1009.27 1620.4 1020.48C1620.4 1024.19 1619.51 1027.94 1618.88 1029.81H1587.61H1587.64ZM1587.71 1024.19H1612.16C1612.49 1022.97 1612.66 1021.63 1612.59 1019.92C1612.53 1012.56 1608.26 1008.74 1601.54 1008.74C1593.3 1008.74 1588.3 1014.92 1587.71 1024.16V1024.19Z" fill="#AFCE6D"></path><path d="M1637.7 982.223C1640.48 982.223 1642.93 984.589 1642.93 987.349C1642.93 990.569 1640.45 993.001 1637.27 993.001C1634.46 993.001 1632.04 990.635 1632.04 987.776C1632.04 984.621 1634.46 982.223 1637.7 982.223ZM1641.41 1003.32V1052.84H1633.56V1003.32H1641.41Z" fill="#AFCE6D"></path><path d="M1664.27 1003.32L1665.5 1010.29C1668.08 1007.07 1675.19 1002.73 1681.71 1002.37V1010.26C1675.76 1010.58 1669.34 1013.02 1666.22 1016.07V1052.88H1658.38V1003.36H1664.27V1003.32Z" fill="#AFCE6D"></path><path d="M1723.44 1043.22C1723.44 1046.3 1724.76 1047.59 1726.81 1047.59C1728.14 1047.59 1729 1047.26 1729.59 1047L1730.35 1052.61C1729.23 1053.21 1727.14 1053.83 1724.86 1053.83C1720.03 1053.83 1717.55 1050.64 1716.69 1047.16C1712.75 1051.43 1707.78 1053.83 1702.45 1053.83C1694.18 1053.83 1687.79 1048.47 1687.79 1040.59C1687.79 1026.62 1703.71 1024.58 1715.59 1025.9V1020.57C1715.59 1013.48 1712.68 1009.3 1704.94 1009.3C1699.77 1009.3 1694.74 1011.01 1692.26 1012.16L1690.21 1006.41C1692.92 1004.83 1698.98 1002.4 1705.9 1002.4C1717.28 1002.4 1723.44 1008.78 1723.44 1019.33V1043.25V1043.22ZM1704.41 1047.19C1708.64 1047.13 1712.58 1044.96 1715.59 1041.67V1031.29C1709.5 1030.47 1695.87 1030.27 1695.87 1039.67C1695.87 1044.3 1699.24 1047.23 1704.41 1047.23V1047.19Z" fill="#AFCE6D"></path><path d="M1764.63 982.223C1767.41 982.223 1769.86 984.589 1769.86 987.349C1769.86 990.569 1767.38 993.001 1764.2 993.001C1761.39 993.001 1758.97 990.635 1758.97 987.776C1758.97 984.621 1761.39 982.223 1764.63 982.223ZM1768.34 1003.32V1052.84H1760.5V1003.32H1768.34Z" fill="#AFCE6D"></path><path d="M1791.64 1003.32L1792.47 1009.37C1797.76 1004.87 1803.82 1002.34 1809.38 1002.34C1819.57 1002.34 1824.97 1008.51 1824.97 1020.25V1052.84H1817.09V1021.43C1817.09 1013.41 1813.68 1009.3 1807 1009.3C1802.8 1009.3 1796.87 1011.87 1793.16 1015.32V1052.88H1785.32V1003.36H1791.64V1003.32Z" fill="#AFCE6D"></path><path d="M1849.84 1003.32H1862.85V1009.76H1850.24V1052.85H1842.39V1009.76H1834.15V1004.15L1842.72 1003.55V997.507C1842.72 987.846 1849.51 981.241 1859.44 981.241C1862.85 981.241 1866.02 982.161 1867.61 982.687L1866.09 988.832C1864.53 988.405 1861.72 987.879 1859.14 987.879C1853.05 987.879 1849.84 991.494 1849.84 998.362V1003.29V1003.32Z" fill="#AFCE6D"></path><path d="M1903.94 1043.22C1903.94 1046.31 1905.27 1047.59 1907.32 1047.59C1908.64 1047.59 1909.5 1047.26 1910.1 1047L1910.86 1052.62C1909.73 1053.21 1907.65 1053.83 1905.37 1053.83C1900.53 1053.83 1898.05 1050.64 1897.19 1047.16C1893.25 1051.43 1888.29 1053.83 1882.96 1053.83C1874.69 1053.83 1868.3 1048.48 1868.3 1040.59C1868.3 1026.62 1884.22 1024.59 1896.1 1025.9V1020.58C1896.1 1013.48 1893.19 1009.3 1885.44 1009.3C1880.28 1009.3 1875.25 1011.01 1872.77 1012.16L1870.72 1006.41C1873.43 1004.84 1879.49 1002.4 1886.4 1002.4C1897.79 1002.4 1903.94 1008.78 1903.94 1019.33V1043.25V1043.22ZM1896.73 996.226C1893.55 994.057 1889.12 990.607 1886.27 988.109C1883.36 990.738 1879.12 994.024 1875.81 996.226L1872.01 990.87C1875.71 988.569 1880.71 985.086 1886.27 980.814C1891.86 985.086 1896.83 988.569 1900.53 990.87L1896.73 996.226ZM1884.88 1047.19C1889.12 1047.13 1893.06 1044.96 1896.07 1041.67V1031.29C1889.98 1030.47 1876.34 1030.27 1876.34 1039.67C1876.34 1044.3 1879.72 1047.23 1884.88 1047.23V1047.19Z" fill="#AFCE6D"></path><path d="M1927.36 1003.32L1928.19 1009.37C1933.52 1004.87 1939.54 1002.34 1945.1 1002.34C1955.3 1002.34 1960.69 1008.52 1960.69 1020.25V1052.85H1952.81V1021.43C1952.81 1013.41 1949.41 1009.31 1942.72 1009.31C1938.52 1009.31 1932.59 1011.87 1928.89 1015.32V1052.88H1921.04V1003.36H1927.36V1003.32Z" fill="#AFCE6D"></path><path d="M1998.23 1046.9C2001.73 1046.9 2005.44 1046.14 2008.88 1044.73L2010.97 1050.51C2007.56 1052.45 2002.06 1053.8 1997.13 1053.8C1982.77 1053.8 1973.07 1043.64 1973.07 1028.56C1973.07 1013.48 1983.07 1002.34 1997.73 1002.34C2002.66 1002.34 2007.13 1003.85 2010.11 1005.49L2007.72 1011.21C2004.94 1010.19 2001.73 1009.27 1997.43 1009.27C1987.64 1009.27 1981.41 1016.43 1981.41 1027.74C1981.41 1039.7 1987.73 1046.9 1998.23 1046.9Z" fill="#AFCE6D"></path><path d="M2026.52 982.223C2029.3 982.223 2031.72 984.589 2031.72 987.349C2031.72 990.569 2029.24 993.001 2026.06 993.001C2023.25 993.001 2020.83 990.635 2020.83 987.776C2020.83 984.621 2023.28 982.223 2026.49 982.223H2026.52ZM2030.23 1003.32V1052.84H2022.39V1003.32H2030.23Z" fill="#AFCE6D"></path><path d="M2078.47 1043.22C2078.47 1046.3 2079.8 1047.59 2081.85 1047.59C2083.17 1047.59 2084.03 1047.26 2084.63 1047L2085.39 1052.61C2084.26 1053.21 2082.18 1053.83 2079.89 1053.83C2075.06 1053.83 2072.58 1050.64 2071.72 1047.16C2067.78 1051.43 2062.82 1053.83 2057.49 1053.83C2049.22 1053.83 2042.83 1048.47 2042.83 1040.59C2042.83 1026.62 2058.75 1024.58 2070.63 1025.9V1020.57C2070.63 1013.48 2067.72 1009.3 2059.97 1009.3C2054.81 1009.3 2049.78 1011.01 2047.3 1012.16L2045.24 1006.41C2047.96 1004.83 2054.01 1002.4 2060.93 1002.4C2072.32 1002.4 2078.47 1008.78 2078.47 1019.33V1043.25V1043.22ZM2059.44 1047.19C2063.68 1047.13 2067.62 1044.96 2070.63 1041.67V1031.29C2064.54 1030.47 2050.9 1030.27 2050.9 1039.67C2050.9 1044.3 2054.28 1047.23 2059.44 1047.23V1047.19Z" fill="#AFCE6D"></path><path d="M2120.01 1029.81C2120.31 1040.69 2126.17 1046.87 2136.53 1046.87C2140.9 1046.87 2145.73 1045.85 2148.81 1044.7L2150.69 1050.71C2147.38 1052.19 2141.43 1053.8 2135.5 1053.8C2120.74 1053.8 2111.57 1043.55 2111.57 1028.5C2111.57 1013.45 2120.48 1002.34 2134.74 1002.34C2146.22 1002.34 2152.78 1009.27 2152.78 1020.48C2152.78 1024.19 2151.88 1027.94 2151.26 1029.81H2119.98H2120.01ZM2120.08 1024.19H2144.54C2144.87 1022.98 2145.03 1021.63 2144.97 1019.92C2144.9 1012.56 2140.63 1008.75 2133.91 1008.75C2125.67 1008.75 2120.68 1014.93 2120.08 1024.16V1024.19ZM2121.93 990.215L2143.51 979.765L2146.69 986.83L2124.05 994.914L2121.97 990.215H2121.93Z" fill="#AFCE6D"></path><path d="M2193.98 1003.32L2195 1009.04C2199.57 1004.74 2205.1 1002.37 2210.53 1002.37C2223.3 1002.37 2231.67 1012.43 2231.67 1027.71C2231.67 1042.99 2221.18 1053.83 2207.28 1053.83C2203.77 1053.83 2199.47 1052.85 2195.96 1051.2V1072H2188.12V1003.32H2193.98ZM2195.96 1044.37C2199.07 1045.95 2203.38 1046.9 2207.55 1046.9C2216.95 1046.9 2223.33 1039.11 2223.33 1028.46C2223.33 1016.76 2217.67 1009.27 2209 1009.27C2203.84 1009.27 2198.78 1011.54 2195.96 1015.06V1044.37Z" fill="#AFCE6D"></path><path d="M2276.07 1043.22C2276.07 1046.3 2277.39 1047.59 2279.45 1047.59C2280.77 1047.59 2281.63 1047.26 2282.23 1047L2282.99 1052.61C2281.86 1053.21 2279.78 1053.83 2277.49 1053.83C2272.66 1053.83 2270.18 1050.64 2269.32 1047.16C2265.38 1051.43 2260.42 1053.83 2255.09 1053.83C2246.81 1053.83 2240.43 1048.47 2240.43 1040.59C2240.43 1026.62 2256.34 1024.58 2268.23 1025.9V1020.57C2268.23 1013.48 2265.31 1009.3 2257.57 1009.3C2252.41 1009.3 2247.38 1011.01 2244.89 1012.16L2242.84 1006.41C2245.56 1004.83 2251.61 1002.4 2258.53 1002.4C2269.91 1002.4 2276.07 1008.78 2276.07 1019.33V1043.25V1043.22ZM2257.04 1047.19C2261.28 1047.13 2265.21 1044.96 2268.23 1041.67V1031.29C2262.14 1030.47 2248.5 1030.27 2248.5 1039.67C2248.5 1044.3 2251.88 1047.23 2257.04 1047.23V1047.19Z" fill="#AFCE6D"></path><path d="M2299.05 1003.32L2300.28 1010.29C2302.86 1007.07 2309.97 1002.73 2316.49 1002.37V1010.26C2310.54 1010.58 2304.12 1013.02 2301.01 1016.07V1052.88H2293.16V1003.36H2299.05V1003.32Z" fill="#AFCE6D"></path><path d="M2358.22 1043.22C2358.22 1046.3 2359.55 1047.59 2361.6 1047.59C2362.92 1047.59 2363.78 1047.26 2364.38 1047L2365.14 1052.61C2364.01 1053.21 2361.93 1053.83 2359.64 1053.83C2354.81 1053.83 2352.33 1050.64 2351.47 1047.16C2347.53 1051.43 2342.57 1053.83 2337.24 1053.83C2328.97 1053.83 2322.58 1048.47 2322.58 1040.59C2322.58 1026.62 2338.5 1024.58 2350.38 1025.9V1020.57C2350.38 1013.48 2347.47 1009.3 2339.72 1009.3C2334.56 1009.3 2329.53 1011.01 2327.05 1012.16L2324.99 1006.41C2327.71 1004.83 2333.76 1002.4 2340.68 1002.4C2352.07 1002.4 2358.22 1008.78 2358.22 1019.33V1043.25V1043.22ZM2339.19 1047.19C2343.43 1047.13 2347.37 1044.96 2350.38 1041.67V1031.29C2344.29 1030.47 2330.65 1030.27 2330.65 1039.67C2330.65 1044.3 2334.03 1047.23 2339.19 1047.23V1047.19Z" fill="#AFCE6D"></path><path d="M2425.52 1043.22C2425.52 1046.3 2426.84 1047.59 2428.89 1047.59C2430.22 1047.59 2431.08 1047.26 2431.67 1047L2432.43 1052.61C2431.31 1053.21 2429.22 1053.83 2426.94 1053.83C2422.11 1053.83 2419.63 1050.64 2418.77 1047.16C2414.83 1051.43 2409.86 1053.83 2404.54 1053.83C2396.26 1053.83 2389.87 1048.47 2389.87 1040.59C2389.87 1026.62 2405.79 1024.58 2417.67 1025.9V1020.57C2417.67 1013.48 2414.76 1009.3 2407.02 1009.3C2401.86 1009.3 2396.82 1011.01 2394.34 1012.16L2392.29 1006.41C2395 1004.83 2401.06 1002.4 2407.98 1002.4C2419.36 1002.4 2425.52 1008.78 2425.52 1019.33V1043.25V1043.22ZM2406.49 1047.19C2410.72 1047.13 2414.66 1044.96 2417.67 1041.67V1031.29C2411.58 1030.47 2397.95 1030.27 2397.95 1039.67C2397.95 1044.3 2401.33 1047.23 2406.49 1047.23V1047.19Z" fill="#AFCE6D"></path><path d="M2500.42 1003.32L2480.3 1052.84H2473.19L2453.07 1003.32H2461.51L2476.76 1043.15L2492.02 1003.32H2500.46H2500.42Z" fill="#AFCE6D"></path><path d="M2514.48 982.223C2517.26 982.223 2519.71 984.589 2519.71 987.349C2519.71 990.569 2517.23 993.001 2514.05 993.001C2511.23 993.001 2508.82 990.635 2508.82 987.776C2508.82 984.621 2511.27 982.223 2514.48 982.223ZM2518.18 1003.32V1052.84H2510.34V1003.32H2518.18Z" fill="#AFCE6D"></path><path d="M2569 1052.84L2567.98 1047.13C2563.41 1051.43 2557.88 1053.8 2552.45 1053.8C2539.68 1053.8 2531.31 1043.74 2531.31 1028.56C2531.31 1013.38 2541.76 1002.34 2555.7 1002.34C2559.2 1002.34 2563.47 1003.32 2566.98 1004.97V982.225L2574.83 981.239V1052.81H2569V1052.84ZM2567.02 1011.8C2563.9 1010.22 2559.6 1009.27 2555.43 1009.27C2546.03 1009.27 2539.65 1017.06 2539.65 1027.8C2539.65 1039.4 2545.31 1046.9 2553.98 1046.9C2559.14 1046.9 2564.2 1044.63 2567.02 1041.11V1011.8Z" fill="#AFCE6D"></path><path d="M2623.09 1043.22C2623.09 1046.3 2624.42 1047.59 2626.47 1047.59C2627.79 1047.59 2628.65 1047.26 2629.25 1047L2630.01 1052.61C2628.89 1053.21 2626.8 1053.83 2624.52 1053.83C2619.69 1053.83 2617.2 1050.64 2616.34 1047.16C2612.41 1051.43 2607.44 1053.83 2602.11 1053.83C2593.84 1053.83 2587.45 1048.47 2587.45 1040.59C2587.45 1026.62 2603.37 1024.58 2615.25 1025.9V1020.57C2615.25 1013.48 2612.34 1009.3 2604.59 1009.3C2599.43 1009.3 2594.4 1011.01 2591.92 1012.16L2589.87 1006.41C2592.58 1004.83 2598.64 1002.4 2605.55 1002.4C2616.94 1002.4 2623.09 1008.78 2623.09 1019.33V1043.25V1043.22ZM2604.07 1047.19C2608.3 1047.13 2612.24 1044.96 2615.25 1041.67V1031.29C2609.16 1030.47 2595.53 1030.27 2595.53 1039.67C2595.53 1044.3 2598.9 1047.23 2604.07 1047.23V1047.19Z" fill="#AFCE6D"></path><path d="M2667.9 1003.32H2682.99V1009.76H2668.23V1038.28C2668.23 1044.46 2670.81 1047.19 2676.61 1047.19C2678.46 1047.19 2681.34 1046.76 2682.93 1046.23L2684.45 1052.38C2682.07 1053.13 2677.96 1053.82 2675.18 1053.82C2665.65 1053.82 2660.32 1048.7 2660.32 1039.46V1009.76H2652.08V1004.14L2660.79 1003.61L2660.98 992.341L2667.87 991.421V1003.32H2667.9Z" fill="#AFCE6D"></path><path d="M2690.98 1028.46C2690.98 1012.79 2700.38 1002.34 2714.41 1002.34C2728.45 1002.34 2737.25 1012.59 2737.25 1027.64C2737.25 1042.69 2727.85 1053.8 2713.82 1053.8C2699.79 1053.8 2690.98 1043.48 2690.98 1028.46ZM2728.91 1028.46C2728.91 1016.27 2723.15 1008.78 2713.82 1008.78C2705.01 1008.78 2699.29 1016.17 2699.29 1027.64C2699.29 1039.83 2705.05 1047.36 2714.38 1047.36C2723.18 1047.36 2728.91 1039.96 2728.91 1028.46Z" fill="#AFCE6D"></path><path d="M2784.14 1052.84L2783.11 1047.13C2778.55 1051.43 2773.02 1053.8 2767.59 1053.8C2754.82 1053.8 2746.45 1043.74 2746.45 1028.56C2746.45 1013.38 2756.9 1002.34 2770.84 1002.34C2774.34 1002.34 2778.61 1003.32 2782.12 1004.97V982.225L2789.97 981.239V1052.81H2784.14V1052.84ZM2782.16 1011.8C2779.04 1010.22 2774.74 1009.27 2770.57 1009.27C2761.17 1009.27 2754.79 1017.06 2754.79 1027.8C2754.79 1039.4 2760.44 1046.9 2769.12 1046.9C2774.28 1046.9 2779.34 1044.63 2782.16 1041.11V1011.8Z" fill="#AFCE6D"></path><path d="M2838.24 1043.22C2838.24 1046.3 2839.57 1047.59 2841.62 1047.59C2842.94 1047.59 2843.8 1047.26 2844.4 1047L2845.16 1052.61C2844.03 1053.21 2841.95 1053.83 2839.66 1053.83C2834.83 1053.83 2832.35 1050.64 2831.49 1047.16C2827.55 1051.43 2822.59 1053.83 2817.26 1053.83C2808.99 1053.83 2802.6 1048.47 2802.6 1040.59C2802.6 1026.62 2818.52 1024.58 2830.4 1025.9V1020.57C2830.4 1013.48 2827.49 1009.3 2819.74 1009.3C2814.58 1009.3 2809.55 1011.01 2807.07 1012.16L2805.01 1006.41C2807.73 1004.83 2813.78 1002.4 2820.7 1002.4C2832.09 1002.4 2838.24 1008.78 2838.24 1019.33V1043.25V1043.22ZM2819.21 1047.19C2823.45 1047.13 2827.39 1044.96 2830.4 1041.67V1031.29C2824.31 1030.47 2810.67 1030.27 2810.67 1039.67C2810.67 1044.3 2814.05 1047.23 2819.21 1047.23V1047.19Z" fill="#AFCE6D"></path><path d="M1504.45 495.846C1525.6 495.846 1545.52 488.223 1549.89 486.186L1564.18 533.961C1551.31 541.387 1527.05 550.028 1493.86 550.028C1428.34 550.028 1389.33 506.36 1389.33 442.551C1389.33 378.741 1429.37 330.933 1498 330.933C1528.28 330.933 1551.31 340.199 1561.24 345.949L1548.79 394.743C1544.86 393.1 1525.56 385.05 1506.47 385.05C1475.17 385.05 1459.38 404.83 1459.38 439.199C1459.38 476.066 1473.28 495.813 1504.39 495.813L1504.45 495.846Z" fill="#5282C2"></path><path d="M1646.95 335.04L1655.46 361.194C1670.81 344.108 1699.01 328.468 1725.97 331.557V392.08C1703.57 389.813 1675.38 398.455 1660.22 406.275V545.887H1592.19V335.04H1646.95Z" fill="#5282C2"></path><path d="M1783.85 352.614C1770.87 352.614 1758.99 348.211 1749.83 340.982V545.882H1817.86V340.982C1808.7 348.211 1796.85 352.614 1783.85 352.614Z" fill="#5282C2"></path><path d="M2015.13 487.401C2015.13 495.649 2018.64 498.934 2024.46 498.934C2029.86 498.934 2034.23 497.686 2037.93 496.667L2043.13 542.799C2032.77 547.137 2020.1 549.995 2005.37 549.995C1989.39 549.995 1974.07 545.461 1965.76 531.036C1950.84 543.194 1932.57 549.995 1915.36 549.995C1873.67 549.995 1845.87 526.108 1845.87 490.293C1845.87 443.537 1887.14 422.968 1951.23 430.163V411.205C1951.23 393.067 1942.93 385.05 1921.98 385.05C1901.03 385.05 1879.06 392.049 1866.62 397.832L1854.57 350.484C1870.13 342.039 1902.06 330.933 1930.88 330.933C1985.22 330.933 2015.1 355.642 2015.1 400.756V487.434L2015.13 487.401ZM1928.86 502.647C1936.34 502.647 1944.42 500.183 1951.27 496.667V465.157C1923.9 460.425 1908.94 468.048 1908.94 483.886C1908.94 496.043 1916.82 502.614 1928.86 502.614V502.647Z" fill="#5282C2"></path><path d="M2119.62 335.041L2126.47 355.84C2134.98 347.592 2156.95 330.933 2187.66 330.933C2236.8 330.933 2262.11 354.394 2262.11 407.13V545.921H2194.08V417.645C2194.08 395.4 2186.4 386.134 2166.91 386.134C2156.12 386.134 2140.57 391.49 2132.89 397.667V545.921H2064.86V335.073H2119.62V335.041Z" fill="#5282C2"></path><path d="M2405.24 495.846C2426.39 495.846 2446.31 488.223 2450.68 486.186L2464.97 533.961C2452.1 541.387 2427.85 550.028 2394.69 550.028C2329.13 550.028 2290.15 506.36 2290.15 442.551C2290.15 378.741 2330.16 330.933 2398.82 330.933C2429.1 330.933 2452.13 340.199 2462.06 345.949L2449.62 394.743C2445.68 393.1 2426.39 385.05 2407.3 385.05C2375.99 385.05 2360.21 404.83 2360.21 439.199C2360.21 476.066 2374.11 495.813 2405.21 495.813L2405.24 495.846Z" fill="#5282C2"></path><path d="M2365.4 596.753C2368.51 597.772 2375.56 598.824 2382.61 598.824C2394.42 598.824 2398.99 591.2 2398.99 583.773C2398.99 575.328 2393.79 568.723 2382.81 568.723H2369.34L2371.22 549.992H2388.63C2409.78 549.992 2423.88 560.277 2423.88 580.684C2423.88 604.804 2407.69 618.179 2379.89 618.179C2372.65 618.179 2365.6 616.536 2361.86 614.893L2365.4 596.786V596.753Z" fill="#5282C2"></path><path d="M2646.67 487.401C2646.67 495.649 2650.18 498.934 2656.01 498.934C2661.4 498.934 2665.73 497.686 2669.47 496.667L2674.67 542.799C2664.31 547.137 2651.64 549.995 2636.91 549.995C2620.93 549.995 2605.61 545.461 2597.3 531.036C2582.38 543.194 2564.11 549.995 2546.9 549.995C2505.21 549.995 2477.41 526.108 2477.41 490.293C2477.41 443.537 2518.68 422.968 2582.77 430.163V411.205C2582.77 393.067 2574.47 385.05 2553.52 385.05C2532.58 385.05 2510.6 392.049 2498.16 397.832L2486.12 350.484C2501.67 342.039 2533.6 330.933 2562.42 330.933C2616.76 330.933 2646.64 355.642 2646.64 400.756V487.434L2646.67 487.401ZM2560.41 502.647C2567.88 502.647 2575.96 500.183 2582.81 496.667V465.157C2555.44 460.425 2540.52 468.048 2540.52 483.886C2540.52 496.043 2548.39 502.614 2560.44 502.614L2560.41 502.647Z" fill="#5282C2"></path><path d="M2697.25 485.364C2710.71 491.542 2735.4 498.967 2754.69 498.967C2771.07 498.967 2781.43 496.306 2781.43 487.631C2781.43 477.741 2767.53 473.634 2753.04 468.475L2738.51 463.317C2700.99 449.944 2685 429.769 2685 399.902C2685 358.107 2717.17 330.933 2767.96 330.933C2788.48 330.933 2815.65 333.628 2839.94 345.949L2829.58 394.743C2814.22 389.387 2790.36 381.961 2772.13 381.961C2761.97 381.961 2748.7 384.031 2748.7 395.137C2748.7 405.027 2758.46 409.135 2778.35 416.758L2794.53 422.935C2828.75 435.914 2845.13 454.445 2845.13 485.726C2845.13 524.662 2818.16 549.962 2761.15 549.962C2727.13 549.962 2701.22 542.339 2684.21 533.895L2697.28 485.299L2697.25 485.364Z" fill="#5282C2"></path><path d="M1783.83 332.678C1804.75 332.678 1821.72 317.553 1821.72 298.896C1821.72 280.239 1804.75 265.115 1783.83 265.115C1762.9 265.115 1745.93 280.239 1745.93 298.896C1745.93 317.553 1762.9 332.678 1783.83 332.678Z" fill="#F4A94E"></path><path d="M1601.13 600.42V909.314H1545.64L1538.92 888.844L1532.2 894.89C1526.74 900.509 1506.13 913.455 1481.54 913.455C1426.05 913.455 1394.08 869.195 1394.08 804.301C1394.08 739.408 1433.82 691.37 1497.09 691.37C1511.39 691.37 1523.17 695.346 1532.2 699.913V604.724L1601.16 600.354L1601.13 600.42ZM1532.17 750.711C1527.34 747.359 1518.07 743.186 1505.46 743.186C1478.36 743.186 1465.09 767.6 1465.09 801.213C1465.09 834.826 1477.7 859.666 1504.41 859.666C1514.3 859.666 1526.91 854.869 1532.14 850.269V750.711H1532.17Z" fill="#5282C2"></path><path d="M1632.7 804.331C1632.7 736.907 1673.27 691.399 1743.49 691.399C1813.71 691.399 1851.53 735.659 1851.53 800.552C1851.53 865.446 1810.96 913.484 1740.74 913.484C1670.52 913.484 1632.7 869.225 1632.7 804.331ZM1780.49 803.707C1780.49 766.348 1770.59 741.08 1741.17 741.08C1713.44 741.08 1703.75 766.348 1703.75 801.177C1703.75 838.536 1713.64 863.803 1743.06 863.803C1770.79 863.803 1780.49 838.536 1780.49 803.707Z" fill="#5282C2"></path><path d="M1947.57 631.729H2043C2114.05 631.729 2152.3 660.316 2152.3 722.318C2152.3 784.32 2106.47 816.225 2047.21 816.225H2016.53V909.311H1947.6V631.729H1947.57ZM2016.5 686.405V764.474H2040.89C2068.22 764.474 2080.2 749.228 2080.2 725.045C2080.2 700.862 2067.36 686.437 2045.09 686.437H2016.5V686.405Z" fill="#5282C2"></path><path d="M2221.22 590.4C2242.23 590.4 2256.96 602.918 2256.96 625.689C2256.96 652.402 2241.21 664.724 2217.45 664.724C2196.43 664.724 2181.71 652.205 2181.71 629.434C2181.71 602.918 2197.46 590.4 2221.22 590.4ZM2253.81 695.61V909.349H2184.85V695.61H2253.81Z" fill="#5282C2"></path><path d="M2453.71 850.038C2453.71 858.384 2457.28 861.735 2463.17 861.735C2468.63 861.735 2473.06 860.487 2476.84 859.435L2482.1 906.191C2471.58 910.562 2458.77 913.486 2443.84 913.486C2427.66 913.486 2412.11 908.886 2403.71 894.297C2388.58 906.619 2370.08 913.486 2352.61 913.486C2310.36 913.486 2282.19 889.27 2282.19 852.962C2282.19 805.582 2324.02 784.717 2388.98 792.011V772.822C2388.98 754.455 2380.57 746.306 2359.33 746.306C2338.09 746.306 2315.82 753.404 2303.21 759.252L2291.03 711.247C2306.78 702.704 2339.18 691.401 2368.4 691.401C2423.46 691.401 2453.74 716.439 2453.74 762.144V850.005L2453.71 850.038ZM2366.28 865.481C2373.86 865.481 2382.03 862.984 2388.98 859.435V827.498C2361.25 822.7 2346.09 830.422 2346.09 846.489C2346.09 858.811 2354.07 865.481 2366.28 865.481Z" fill="#5282C2"></path><path d="M2643.3 909.317L2636.35 888.222C2628.14 897.389 2605.87 913.49 2575.4 913.49C2526.22 913.49 2500.97 889.701 2500.97 836.274V695.611H2569.9V825.628C2569.9 848.169 2577.48 857.566 2596.38 857.566C2606.9 857.566 2621.19 852.144 2629.8 845.869V695.578H2698.76V909.317H2643.27H2643.3Z" fill="#5282C2"></path><path d="M2725.92 638.409L2832.51 581.007L2858.35 637.358L2740.42 669.919L2725.92 638.409ZM2816.09 695.614V909.353H2747.13V695.614H2816.09Z" fill="#5282C2"></path></svg>